<svg version="1.1" id="Layer_1" xmlns="http://www.w3.org/2000/svg" xmlns:xlink="http://www.w3.org/1999/xlink" x="0px" y="0px"
	 width="100%" viewBox="0 0 180 180" enable-background="new 0 0 180 180" xml:space="preserve">
<path fill="black" opacity="1.000000" stroke="none" 
	d="
M123.943222,44.074471 
	C135.251312,52.672920 145.954651,61.537247 157.317642,69.454826 
	C161.831512,72.600029 163.512924,76.190353 163.774643,81.051460 
	C164.202362,88.995598 164.611694,96.946274 164.705704,104.898010 
	C164.723969,106.443329 163.675339,108.567574 162.427917,109.475708 
	C146.424179,121.126442 130.301529,132.613953 114.194267,144.122238 
	C106.578430,149.563583 98.931122,154.960876 90.948700,160.626083 
	C81.702187,154.033554 72.470047,147.422058 63.207176,140.853912 
	C49.231369,130.943893 35.243633,121.050636 21.237406,111.183701 
	C18.634275,109.349876 16.722736,107.569649 17.070681,103.759865 
	C17.778343,96.011368 18.029331,88.207977 18.138653,80.422577 
	C18.213051,75.124161 21.043592,71.802872 24.931900,68.847786 
	C45.937832,52.883472 66.914948,36.881172 87.876900,20.859131 
	C89.975784,19.254869 91.592400,19.191309 93.828568,20.962650 
	C103.658104,28.748941 113.662125,36.314964 123.943222,44.074471 
z"/>
</svg>