<svg version="1.1" id="Layer_1" xmlns="http://www.w3.org/2000/svg" xmlns:xlink="http://www.w3.org/1999/xlink" x="0px" y="0px"
	 width="100%" viewBox="0 0 180 180" enable-background="new 0 0 180 180" xml:space="preserve">
<path fill="black" opacity="1.000000" stroke="none" 
	d="
M157.000443,71.387154 
	C157.003708,83.506355 157.141525,95.171860 156.906250,106.829842 
	C156.853653,109.435768 156.038391,112.365601 154.639542,114.546867 
	C148.279587,124.464218 141.646027,134.209091 134.948898,143.904114 
	C133.903122,145.417999 132.202621,146.909317 130.496078,147.468185 
	C118.249100,151.478867 106.061096,155.837158 93.546730,158.774338 
	C89.073257,159.824295 83.677330,157.525970 78.830200,156.264893 
	C71.637810,154.393646 64.626472,151.807755 57.409195,150.057388 
	C52.299797,148.818253 48.766594,146.345871 45.838459,141.871765 
	C40.014664,132.973190 33.204662,124.713249 27.514044,115.738075 
	C25.579060,112.686241 25.347815,108.306053 25.098021,104.483185 
	C24.493465,95.231056 24.427065,85.945099 23.958580,76.682137 
	C23.738941,72.339455 24.823233,68.889900 27.733898,65.383789 
	C33.591606,58.327766 39.261139,51.010986 44.077694,43.226025 
	C48.458355,36.145588 55.195801,33.600910 62.265903,31.049381 
	C70.732796,27.993771 79.162254,24.833460 87.649757,21.836983 
	C88.941589,21.380909 90.607117,21.114260 91.849403,21.522305 
	C103.362267,25.303816 114.868637,29.119093 126.257942,33.252342 
	C128.907700,34.213951 131.638123,35.981926 133.417908,38.134277 
	C141.166992,47.505482 148.624588,57.120335 156.046509,66.755707 
	C156.837692,67.782845 156.704590,69.521935 157.000443,71.387154 
z"/>
</svg>