<svg version="1.1" id="Layer_1" xmlns="http://www.w3.org/2000/svg" xmlns:xlink="http://www.w3.org/1999/xlink" x="0px" y="0px"
	 width="100%" viewBox="0 0 180 180" enable-background="new 0 0 180 180" xml:space="preserve">
<path fill="black" opacity="1.000000" stroke="none" 
	d="
M130.334381,37.733353 
	C137.695404,42.402832 144.460251,47.445129 151.889130,51.159241 
	C158.434708,54.431740 159.540131,59.138988 159.061737,65.577034 
	C158.399780,74.485359 158.294159,83.435799 157.985611,92.369423 
	C157.631042,102.635071 157.436417,112.908936 156.855728,123.161293 
	C156.765259,124.758316 155.343994,126.791100 153.940857,127.725708 
	C133.927826,141.056061 113.849335,154.289902 93.645493,167.328339 
	C92.130981,168.305710 88.952499,168.510437 87.544159,167.574585 
	C67.675285,154.371353 48.031586,140.829407 28.174257,127.608459 
	C25.724583,125.977470 24.978695,124.435143 24.947300,121.709229 
	C24.708158,100.944862 24.338079,80.181969 23.985691,59.418999 
	C23.960974,57.962528 23.751711,56.509186 23.612871,54.873005 
	C45.172874,41.309483 66.796074,27.660423 88.514946,14.165331 
	C89.718765,13.417330 92.138039,13.269578 93.277924,13.982883 
	C105.609955,21.699875 117.798882,29.645535 130.334381,37.733353 
z"/>
</svg>