<svg version="1.1" id="Layer_1" xmlns="http://www.w3.org/2000/svg" xmlns:xlink="http://www.w3.org/1999/xlink" x="0px" y="0px"
	 width="100%" viewBox="0 0 180 180" enable-background="new 0 0 180 180" xml:space="preserve">
<path fill="black" opacity="1.000000" stroke="none" 
	d="
M30.269226,83.184967 
	C30.609179,75.254066 30.732759,67.780548 31.432657,60.361401 
	C31.611191,58.468872 33.207432,56.135666 34.844967,55.043106 
	C53.366203,42.685799 72.022362,30.530718 90.759384,18.244699 
	C109.360367,30.343075 128.220490,42.481350 146.870804,54.933895 
	C148.795715,56.219135 150.421692,59.316185 150.574295,61.676769 
	C151.835617,81.186905 152.641266,100.725983 153.771179,120.245522 
	C154.021072,124.562500 153.299011,127.196419 148.785553,129.432037 
	C130.863922,138.309052 113.237518,147.785416 95.565605,157.160110 
	C92.425377,158.825943 89.791809,158.982346 86.533737,157.249069 
	C68.321091,147.560150 50.022659,138.030777 31.678278,128.593170 
	C29.115246,127.274574 28.044355,125.800018 28.219307,122.880066 
	C29.002193,109.813576 29.601419,96.736076 30.269226,83.184967 
z"/>
</svg>