<?xml version="1.0" encoding="UTF-8"?>
<svg width="1500" height="2500" data-name="Layer 1" version="1.1" viewBox="-130 -100 1500 2500" xmlns="http://www.w3.org/2000/svg" xmlns:xlink="http://www.w3.org/1999/xlink">
<defs>
<style>.cls-1{fill:#e7f2f5;}.cls-2{fill:#a8695d;}.cls-3{fill:#a6675c;}.cls-10,.cls-11,.cls-12,.cls-13,.cls-14,.cls-15,.cls-16,.cls-17,.cls-18,.cls-19,.cls-20,.cls-21,.cls-22,.cls-23,.cls-24,.cls-25,.cls-26,.cls-27,.cls-28,.cls-29,.cls-30,.cls-31,.cls-32,.cls-33,.cls-34,.cls-35,.cls-36,.cls-37,.cls-38,.cls-39,.cls-4,.cls-40,.cls-41,.cls-42,.cls-43,.cls-44,.cls-45,.cls-46,.cls-47,.cls-48,.cls-49,.cls-5,.cls-50,.cls-51,.cls-52,.cls-53,.cls-54,.cls-55,.cls-56,.cls-57,.cls-58,.cls-59,.cls-6,.cls-60,.cls-61,.cls-62,.cls-63,.cls-64,.cls-65,.cls-66,.cls-67,.cls-68,.cls-69,.cls-7,.cls-70,.cls-71,.cls-72,.cls-73,.cls-74,.cls-75,.cls-76,.cls-77,.cls-78,.cls-79,.cls-8,.cls-80,.cls-81,.cls-82,.cls-83,.cls-9{stroke:#a8695d;stroke-linejoin:round;}.cls-10,.cls-11,.cls-12,.cls-13,.cls-14,.cls-15,.cls-16,.cls-17,.cls-18,.cls-19,.cls-20,.cls-21,.cls-22,.cls-23,.cls-24,.cls-25,.cls-26,.cls-27,.cls-28,.cls-29,.cls-30,.cls-31,.cls-32,.cls-33,.cls-34,.cls-35,.cls-36,.cls-37,.cls-38,.cls-39,.cls-4,.cls-40,.cls-41,.cls-42,.cls-43,.cls-44,.cls-45,.cls-46,.cls-47,.cls-48,.cls-49,.cls-5,.cls-50,.cls-51,.cls-52,.cls-53,.cls-54,.cls-55,.cls-56,.cls-57,.cls-58,.cls-59,.cls-6,.cls-60,.cls-61,.cls-7,.cls-8,.cls-80,.cls-81,.cls-82,.cls-83,.cls-9{stroke-width:8.41px;}.cls-4{fill:url(#b);}.cls-5,.cls-63{fill:#fbe4ca;}.cls-6{fill:url(#a);}.cls-7{fill:url(#bh);}.cls-8{fill:#d9d7d5;}.cls-9{fill:url(#aw);}.cls-10,.cls-50,.cls-64,.cls-74{fill:none;}.cls-11{fill:url(#am);}.cls-12{fill:url(#u);}.cls-13{fill:url(#al);}.cls-14{fill:url(#ak);}.cls-15{fill:url(#aj);}.cls-16{fill:url(#ai);}.cls-17{fill:url(#ah);}.cls-18{fill:url(#j);}.cls-19{fill:url(#i);}.cls-20{fill:url(#h);}.cls-21{fill:url(#g);}.cls-22{fill:url(#c);}.cls-23{fill:url(#br);}.cls-24{fill:url(#bq);}.cls-25{fill:url(#f);}.cls-26{fill:url(#bp);}.cls-27{fill:url(#bo);}.cls-28{fill:url(#bn);}.cls-29{fill:url(#e);}.cls-30{fill:url(#d);}.cls-31{fill:url(#ae);}.cls-32{fill:url(#ad);}.cls-33{fill:url(#ac);}.cls-34{fill:url(#ab);}.cls-35,.cls-66,.cls-73{fill:#fbe0da;}.cls-36{fill:url(#bm);}.cls-37{fill:url(#bl);}.cls-38{fill:url(#bk);}.cls-39{fill:url(#aa);}.cls-40{fill:url(#z);}.cls-41{fill:url(#y);}.cls-42{fill:url(#x);}.cls-43{fill:url(#w);}.cls-44{fill:url(#v);}.cls-45{fill:url(#t);}.cls-46{fill:url(#bj);}.cls-47{fill:url(#bi);}.cls-48{fill:url(#bg);}.cls-49{fill:url(#bf);}.cls-50,.cls-74{stroke-linecap:round;}.cls-51{fill:url(#ag);}.cls-52{fill:url(#s);}.cls-53{fill:url(#r);}.cls-54{fill:url(#be);}.cls-55{fill:url(#bd);}.cls-56{fill:url(#bc);}.cls-57{fill:url(#bb);}.cls-58{fill:url(#ba);}.cls-59{fill:url(#az);}.cls-60{fill:url(#ay);}.cls-61{fill:url(#ax);}.cls-62,.cls-63,.cls-65,.cls-67,.cls-68,.cls-69,.cls-70,.cls-71,.cls-72,.cls-73,.cls-74,.cls-75,.cls-76,.cls-77,.cls-78,.cls-79{stroke-width:6.31px;}.cls-62{fill:url(#av);}.cls-64{stroke-width:6.31px;}.cls-65{fill:url(#q);}.cls-66{stroke-width:8.66px;}.cls-67{fill:url(#au);}.cls-68{fill:url(#at);}.cls-69{fill:url(#p);}.cls-70{fill:url(#o);}.cls-71{fill:url(#as);}.cls-72{fill:url(#ar);}.cls-75{fill:url(#aq);}.cls-76{fill:url(#n);}.cls-77{fill:url(#m);}.cls-78{fill:url(#l);}.cls-79{fill:url(#ap);}.cls-80{fill:url(#k);}.cls-81{fill:url(#ao);}.cls-82{fill:url(#an);}.cls-83{fill:url(#af);}</style>
<linearGradient id="b" x1="1014.8" x2="1562.2" y1="1223.8" y2="1221.6" gradientUnits="userSpaceOnUse">
<stop stop-color="#fbe0da" offset="0"/>
<stop stop-color="#f5a99e" offset="1"/>
</linearGradient>
<linearGradient id="a" x1="1730.6" x2="1456" y1="1437.7" y2="1345.9" gradientUnits="userSpaceOnUse">
<stop stop-color="#a6675c" offset="0"/>
<stop stop-color="#d9d7d5" offset="1"/>
</linearGradient>
<linearGradient id="bh" x1="1724.7" x2="1450.1" y1="1455.4" y2="1363.6" gradientTransform="translate(-606.67 -346.87)" xlink:href="#a"/>
<linearGradient id="aw" x1="1091.1" x2="1449.2" y1="571.66" y2="546.63" xlink:href="#a"/>
<linearGradient id="am" x1="594.41" x2="824.23" y1="1486.6" y2="1278.1" gradientTransform="translate(-606.67 -346.87)" xlink:href="#a"/>
<linearGradient id="u" x1="1098.4" x2="1484.2" y1="632.12" y2="808.05" gradientTransform="translate(-606.67 -346.87)" xlink:href="#b"/>
<linearGradient id="al" x1="1296.4" x2="1293.6" y1="813.68" y2="640.67" gradientTransform="translate(-606.67 -346.87)" xlink:href="#a"/>
<linearGradient id="ak" x1="1195.5" x2="1192.6" y1="815.37" y2="642.37" gradientTransform="translate(-606.67 -346.87)" xlink:href="#a"/>
<linearGradient id="aj" x1="1397.4" x2="1394.5" y1="811.99" y2="638.98" gradientTransform="translate(-606.67 -346.87)" xlink:href="#a"/>
<linearGradient id="ai" x1="1112" x2="1676" y1="1273.8" y2="1273.8" xlink:href="#a"/>
<linearGradient id="ah" x1="632.85" x2="862.67" y1="1529" y2="1320.4" gradientTransform="translate(-606.67 -346.87)" xlink:href="#a"/>
<linearGradient id="j" x1="646.05" x2="732.93" y1="1086.2" y2="1086.2" gradientTransform="translate(-606.67 -346.87)" xlink:href="#b"/>
<linearGradient id="i" x1="779.95" x2="827.86" y1="971.84" y2="971.84" gradientTransform="translate(-606.67 -346.87)" xlink:href="#b"/>
<linearGradient id="h" x1="733.2" x2="794.73" y1="1046.9" y2="1046.9" gradientTransform="translate(-606.67 -346.86)" xlink:href="#b"/>
<linearGradient id="g" x1="829.39" x2="887.1" y1="1141.2" y2="1141.2" gradientTransform="translate(-606.67 -346.87)" xlink:href="#b"/>
<linearGradient id="c" x1="844.98" x2="871.52" y1="1141.2" y2="1141.2" gradientUnits="userSpaceOnUse">
<stop stop-color="#d9d7d5" offset="0"/>
<stop stop-color="#a6675c" offset="1"/>
</linearGradient>
<linearGradient id="br" x1="760.73" x2="703.16" y1="1043.5" y2="986.1" xlink:href="#a"/>
<linearGradient id="bq" x1="671.46" x2="834.64" y1="1551.7" y2="1551.7" xlink:href="#a"/>
<linearGradient id="f" x1="1452.8" x2="665.85" y1="2179" y2="1223.7" xlink:href="#b"/>
<linearGradient id="bp" x1="1313.6" x2="959.78" y1="1447.4" y2="1447.4" xlink:href="#a"/>
<linearGradient id="bo" x1="1379.5" x2="1626.9" y1="1447.3" y2="1447.3" xlink:href="#a"/>
<linearGradient id="bn" x1="1025.8" x2="1564.5" y1="1005.1" y2="1005.1" xlink:href="#a"/>
<linearGradient id="e" x1="799.67" x2="845.54" y1="1188.5" y2="1188.5" xlink:href="#b"/>
<linearGradient id="d" x1="914.25" x2="965.37" y1="1149.5" y2="1149.5" xlink:href="#b"/>
<linearGradient id="ae" x1="1393.6" x2="1646.8" y1="1340.4" y2="1345.7" xlink:href="#b"/>
<linearGradient id="ad" x1="789.41" x2="1266.9" y1="1615.6" y2="1615.6" xlink:href="#b"/>
<linearGradient id="ac" x1="1249.8" x2="1636.6" y1="1481.1" y2="1481.1" xlink:href="#b"/>
<linearGradient id="ab" x1="1102.3" x2="1121.7" y1="2657.8" y2="2473.3" xlink:href="#b"/>
<linearGradient id="bm" x1="1409" x2="1407" y1="1865.1" y2="1722.6" gradientTransform="translate(-606.67 -346.87)" xlink:href="#a"/>
<linearGradient id="bl" x1="1075.9" x2="1078.6" y1="1782.1" y2="1563.8" gradientTransform="translate(-606.67 -346.87)" xlink:href="#a"/>
<linearGradient id="bk" x1="1536.3" x2="1538.7" y1="1672.8" y2="1500.9" gradientTransform="translate(-606.67 -346.87)" xlink:href="#a"/>
<linearGradient id="aa" x1="1087.3" x2="1502.6" y1="936.23" y2="834.98" gradientTransform="translate(-606.67 -346.87)" xlink:href="#b"/>
<linearGradient id="z" x1="918.44" x2="992.66" y1="1174.3" y2="1174.3" xlink:href="#b"/>
<linearGradient id="y" x1="760.77" x2="799.67" y1="1193.5" y2="1193.5" xlink:href="#b"/>
<linearGradient id="x" x1="829.39" x2="887.1" y1="1193.5" y2="1193.5" xlink:href="#b"/>
<linearGradient id="w" x1="986.05" x2="1010.3" y1="1186.8" y2="1186.8" xlink:href="#b"/>
<linearGradient id="v" x1="897.87" x2="926.92" y1="1193.5" y2="1193.5" xlink:href="#b"/>
<linearGradient id="t" x1="722" x2="743.49" y1="1198.1" y2="1198.1" xlink:href="#b"/>
<linearGradient id="bj" x1="1162.2" x2="1163.6" y1="982.17" y2="792.32" gradientTransform="translate(-606.67 -346.87)" xlink:href="#a"/>
<linearGradient id="bi" x1="1250.4" x2="1251.9" y1="982.84" y2="792.99" gradientTransform="translate(-606.67 -346.87)" xlink:href="#a"/>
<linearGradient id="bg" x1="1338.7" x2="1340.1" y1="983.52" y2="793.67" gradientTransform="translate(-606.67 -346.87)" xlink:href="#a"/>
<linearGradient id="bf" x1="1426.9" x2="1428.4" y1="984.19" y2="794.34" gradientTransform="translate(-606.67 -346.87)" xlink:href="#a"/>
<linearGradient id="ag" x1="1466.5" x2="1495.2" y1="735.74" y2="735.74" gradientTransform="matrix(.16752 .99042 -.99042 .16752 250.19 -655.34)" xlink:href="#c"/>
<linearGradient id="s" x1="1606.5" x2="1704.8" y1="1029.6" y2="1028.1" gradientTransform="translate(-606.67 -346.87)" xlink:href="#b"/>
<linearGradient id="r" x1="1337.9" x2="1342.1" y1="659.26" y2="553.03" xlink:href="#b"/>
<linearGradient id="be" x1="654.51" x2="883.99" y1="1666.6" y2="1666.6" xlink:href="#a"/>
<linearGradient id="bd" x1="994.86" x2="994.65" y1="1591.8" y2="1481" gradientTransform="translate(-606.67 -346.87)" xlink:href="#a"/>
<linearGradient id="bc" x1="1045.6" x2="1045.4" y1="1591.7" y2="1480.9" gradientTransform="translate(-606.67 -346.87)" xlink:href="#a"/>
<linearGradient id="bb" x1="1096.4" x2="1096.2" y1="1591.6" y2="1480.8" gradientTransform="translate(-606.67 -346.87)" xlink:href="#a"/>
<linearGradient id="ba" x1="1147.2" x2="1147" y1="1591.5" y2="1480.7" gradientTransform="translate(-606.67 -346.87)" xlink:href="#a"/>
<linearGradient id="az" x1="1198" x2="1197.8" y1="1591.4" y2="1480.6" gradientTransform="translate(-606.67 -346.87)" xlink:href="#a"/>
<linearGradient id="ay" x1="1248.8" x2="1248.6" y1="1591.3" y2="1480.5" gradientTransform="translate(-606.67 -346.87)" xlink:href="#a"/>
<linearGradient id="ax" x1="993.75" x2="996.31" y1="2140" y2="1942.8" gradientTransform="translate(-606.67 -346.87)" xlink:href="#a"/>
<linearGradient id="av" x1="912.05" x2="975.64" y1="1012.6" y2="1248.3" gradientTransform="translate(-606.67 -346.87)" xlink:href="#a"/>
<linearGradient id="q" x1="1710.5" x2="1721.4" y1="1521.6" y2="1521.6" gradientTransform="translate(-606.67 -346.87)" xlink:href="#b"/>
<linearGradient id="au" x1="1198.6" x2="1284.7" y1="1794.4" y2="1793.8" gradientTransform="translate(-606.67 -346.87)" xlink:href="#a"/>
<linearGradient id="at" x1="1220" x2="1289.1" y1="1883.6" y2="1853.8" gradientTransform="translate(-606.67 -346.87)" xlink:href="#a"/>
<linearGradient id="p" x1="1676.4" x2="1717.1" y1="1525.6" y2="1525.6" xlink:href="#b"/>
<linearGradient id="o" x1="1676" x2="1710" y1="1567.1" y2="1567.1" xlink:href="#b"/>
<linearGradient id="as" x1="1748.8" x2="1714.5" y1="1715.2" y2="1499.8" gradientTransform="translate(-606.67 -346.87)" xlink:href="#a"/>
<linearGradient id="ar" x1="1201.5" x2="1270.6" y1="1840.6" y2="1810.8" gradientTransform="translate(-606.67 -346.87)" xlink:href="#a"/>
<linearGradient id="aq" x1="1032" x2="1140" y1="1998.2" y2="1998.2" xlink:href="#a"/>
<linearGradient id="n" x1="897.49" x2="1008.7" y1="2049.4" y2="2049.4" xlink:href="#b"/>
<linearGradient id="m" x1="694.61" x2="790.87" y1="1453.6" y2="1453.6" xlink:href="#b"/>
<linearGradient id="l" x1="867.45" x2="1008.1" y1="1074.4" y2="1074.4" xlink:href="#b"/>
<linearGradient id="ap" x1="890.18" x2="927.82" y1="1013.6" y2="1013.6" xlink:href="#a"/>
<linearGradient id="k" x1="897.62" x2="1020.5" y1="580.64" y2="580.64" gradientTransform="translate(-606.67 -346.87)" xlink:href="#b"/>
<linearGradient id="ao" x1="812.4" x2="909.35" y1="671.38" y2="671.38" gradientTransform="translate(-606.67 -346.87)" xlink:href="#a"/>
<linearGradient id="an" x1="793.58" x2="701.53" y1="385.06" y2="385.82" gradientTransform="translate(-606.67 -346.87)" xlink:href="#a"/>
<radialGradient id="af" cx="810.33" cy="2218" r="1043.6" xlink:href="#a"/>
<linearGradient id="bu" x1="1014.8" x2="1562.2" y1="1223.8" y2="1221.6" gradientUnits="userSpaceOnUse" xlink:href="#b"/>
<linearGradient id="bt" x1="1730.6" x2="1456" y1="1437.7" y2="1345.9" gradientTransform="translate(-606.67 -346.87)" gradientUnits="userSpaceOnUse" xlink:href="#a"/>
<linearGradient id="bs" x1="844.98" x2="871.52" y1="1141.2" y2="1141.2" gradientTransform="translate(-606.67 -346.87)" gradientUnits="userSpaceOnUse" xlink:href="#c"/>
</defs>
<polygon class="cls-4" transform="translate(-606.67 -346.87)" points="1306 1351.1 1184.8 1294.7 1147.8 1270.8 1147.8 1202.8 1028.2 1196.8 1028.2 1070.9 1564.5 1070.9 1564.5 1374.5" fill="url(#bu)" stroke="#a64253"/>
<path class="cls-5" d="m420.9 802.73h538.59a8.7 8.7 0 0 1 8.7 8.7v15.07a8.7 8.7 0 0 1-8.7 8.7h-538.59a8.81 8.81 0 0 1-8.81-8.81v-14.86a8.81 8.81 0 0 1 8.81-8.8z" stroke="#a64253"/>
<polygon class="cls-5" transform="translate(-606.67 -346.87)" points="1431.9 2267.9 1428.2 2418.6 1395.9 2448.6 1348.6 2528.4 1324 2548 1260.6 2487 1258.4 2435.3 1208.7 2333.4 1208.7 2250.7 1350.3 2183.4 1394.8 2198.4 1435.7 2206.6 1443.3 2243" stroke="#a64253"/>
<rect class="cls-5" x="823.98" y="997.04" width="245.4" height="365.9" stroke="#a64253"/>
<path class="cls-6" d="m1040.6 1034.7a12.62 12.62 0 0 1 12.62 12.62v40.44h-25.24v-40.44a12.62 12.62 0 0 1 12.62-12.62z" fill="url(#bt)" stroke="#a64253"/>
<path class="cls-7" d="m981.71 1034.7a12.62 12.62 0 0 1 12.62 12.62v40.44h-25.24v-40.44a12.62 12.62 0 0 1 12.62-12.62z" fill="url(#bh)" stroke="#a64253"/>
<path class="cls-8" d="m911.08 1042.4a12.61 12.61 0 0 1 11.63-7.72 12.62 12.62 0 0 1 12.62 12.62v4z" stroke="#a64253"/>
<path class="cls-8" d="m851.79 1042.4a12.62 12.62 0 0 1 11.63-7.72 12.62 12.62 0 0 1 12.63 12.62v4z" stroke="#a64253"/>
<polygon class="cls-9" transform="translate(-606.67 -346.87)" points="1211.7 496.81 1127.5 612.11 1462.8 612.11 1378.7 496.81" fill="url(#aw)" stroke="#a64253"/>
<line class="cls-10" x1="772" x2="856.15" y1="149.94" y2="265.24" stroke="#a64253"/>
<line class="cls-10" x1="716.33" x2="744.38" y1="149.94" y2="265.24" stroke="#a64253"/>
<line class="cls-10" x1="660.67" x2="632.62" y1="149.94" y2="265.24" stroke="#a64253"/>
<line class="cls-10" x1="605.02" x2="520.86" y1="149.94" y2="265.24" stroke="#a64253"/>
<rect class="cls-11" x="47.845" y="901.53" width="21.13" height="348.22" fill="url(#am)" stroke="#a64253"/>
<rect class="cls-12" x="520.86" y="295.11" width="335.29" height="159.78" fill="url(#u)" stroke="#a64253"/>
<rect class="cls-5" x="513.19" y="265.24" width="350.62" height="29.87" stroke="#a64253"/>
<path class="cls-13" d="m688.5 326.65a31.26 31.26 0 0 1 31.26 31.26v65.43h-62.52v-65.43a31.26 31.26 0 0 1 31.26-31.26z" fill="url(#al)" stroke="#a64253"/>
<path class="cls-14" d="m587.53 326.65a31.26 31.26 0 0 1 31.26 31.26v65.43h-62.52v-65.43a31.26 31.26 0 0 1 31.26-31.26z" fill="url(#ak)" stroke="#a64253"/>
<path class="cls-15" d="m789.48 326.65a31.26 31.26 0 0 1 31.26 31.26v65.43h-62.52v-65.43a31.26 31.26 0 0 1 31.26-31.26z" fill="url(#aj)" stroke="#a64253"/>
<polygon class="cls-5" transform="translate(-606.67 -346.87)" points="1589 1117.1 1632.5 1063.1 1676 1117.1 1676 1324.4 1589 1324.4" stroke="#a64253"/>
<polygon class="cls-16" transform="translate(-606.67 -346.87)" points="1112 1324.4 1112 1223.3 1588.4 1223.3 1676 1324.4" fill="url(#ai)" stroke="#a64253"/>
<line class="cls-10" x1="503.14" x2="453.02" y1="876.43" y2="977.52" stroke="#a64253"/>
<line class="cls-10" x1="571.5" x2="541.07" y1="876.43" y2="977.52" stroke="#a64253"/>
<line class="cls-10" x1="639.88" x2="629.12" y1="876.43" y2="977.52" stroke="#a64253"/>
<line class="cls-10" x1="708.24" x2="717.18" y1="876.43" y2="977.52" stroke="#a64253"/>
<line class="cls-10" x1="776.6" x2="805.23" y1="876.43" y2="977.52" stroke="#a64253"/>
<line class="cls-10" x1="844.97" x2="893.28" y1="876.43" y2="977.52" stroke="#a64253"/>
<line class="cls-10" x1="913.34" x2="981.33" y1="876.43" y2="977.52" stroke="#a64253"/>
<line class="cls-10" x1="981.71" x2="1069.4" y1="876.43" y2="977.52" stroke="#a64253"/>
<rect class="cls-17" x="132.98" y="901.53" width="21.13" height="348.22" fill="url(#ah)" stroke="#a64253"/>
<path class="cls-5" d="m368 910.7-16.81-52a338.07 338.07 0 0 0-44.66-89.8l-9.31-13.3a337.93 337.93 0 0 0-124.22-107.78l-67.88 67.88a337.93 337.93 0 0 0 107.75 124.22l13.3 9.31a338.07 338.07 0 0 0 89.8 44.66z" stroke="#a64253"/>
<path class="cls-18" d="m105.12 715.7a28.25 28.25 0 0 1-35.3 12.21l-30.44-12.49 8.47 16a60.25 60.25 0 0 0 44.78 31.5 39.65 39.65 0 0 0 33.63-11.22z" fill="url(#j)" stroke="#a64253"/>
<path class="cls-19" d="m173.55 647.27a28.25 28.25 0 0 0 12.22-35.3l-12.44-30.44 16 8.47a60.26 60.26 0 0 1 31.49 44.78 39.65 39.65 0 0 1-11.21 33.63z" fill="url(#i)" stroke="#a64253"/>
<path class="cls-20" d="m182.88 725.59a17.72 17.72 0 0 1-25.06 0l-31.282-31.282 25.067-25.067 31.282 31.282a17.72 17.72 0 0 1 0 25.06z" fill="url(#h)" stroke="#a64253"/>
<circle class="cls-21" cx="251.58" cy="794.28" r="28.86" fill="url(#g)" stroke="#a64253"/>
<circle class="cls-22" cx="251.58" cy="794.28" r="13.27" fill="url(#bs)" stroke="#a64253"/>
<polygon class="cls-23" transform="translate(-606.67 -346.87)" points="749.34 969.66 765.12 1009.2 726.34 1048 686.76 1032.2" fill="url(#br)" stroke="#a64253"/>
<polygon class="cls-24" transform="translate(-606.67 -346.87)" points="688.4 1556.4 705.34 1556.4 705.34 1539.2 722.28 1539.2 722.28 1522.3 739.22 1522.3 739.22 1505.4 757.83 1505.4 834.64 1573.6 816.54 1598.1 749.09 1590.5 671.46 1590.5 671.46 1573.6 688.4 1573.6" fill="url(#bq)" stroke="#a64253"/>
<polyline class="cls-25" transform="translate(-606.67 -346.87)" points="1611.5 1666.6 1661.4 1691.6 1721.2 1714.7 1704.1 1801.5 1721.2 1862.8 1685.6 1896.9 1672.7 1934 1600.1 1965.3 1590.2 2003.7 1503.3 2103.4 1396.5 2156.1 1358 2141.9 1335.2 2160.4 1315.3 2203.1 1279.7 2251.5 1180 2338.4 1113.1 2386.8 987.78 2369.7 939.36 2272.9 828.27 2206 816.54 2166.1 749.09 2114.8 713.03 2050.7 727.09 1983.8 710.23 1961 618.95 1891.2 610.87 1835.5 629.84 1800.4 643.34 1732.4 632.17 1709.1 632.17 1666.6 647.35 1630.2 654.51 1607.3 749.09 1590.5 758.22 1582.8 743.96 1563.4 749.09 1524.6 758.22 1505.4 782.81 1463 786.17 1437.4 811.4 1357.5 782.81 1315.7 777.68 1286.6 678.94 1248.4 651.8 1254 648.71 1235.8 632.17 1225 645.29 1202.8 897.87 1202.8 967.32 1193.8 1147.8 1202.8 1147.8 1270.8 1184.8 1294.7 1304.1 1326.1 1380.1 1522.3 1611.5 1666.6" fill="url(#f)" stroke="#a64253"/>
<polygon class="cls-26" transform="translate(-606.67 -346.87)" points="926.79 1505.4 1018.8 1389.5 1280.1 1389.5 1280.1 1505.4" fill="url(#bp)" stroke="#a64253"/>
<polygon class="cls-27" transform="translate(-606.67 -346.87)" points="1626.9 1505.1 1534.9 1389.2 1379.5 1389.5 1379.5 1505.4" fill="url(#bo)" stroke="#a64253"/>
<line class="cls-10" x1="412.1" x2="320.12" y1="1042.6" y2="1158.5" stroke="#a64253"/>
<line class="cls-10" x1="498.12" x2="436.8" y1="1042.6" y2="1158.5" stroke="#a64253"/>
<line class="cls-10" x1="584.14" x2="553.48" y1="1042.5" y2="1158.4" stroke="#a64253"/>
<line class="cls-10" x1="670.15" x2="670.15" y1="1042.5" y2="1158.4" stroke="#a64253"/>
<line class="cls-10" x1="756.17" x2="786.83" y1="1042.5" y2="1158.3" stroke="#a64253"/>
<line class="cls-10" x1="842.19" x2="903.51" y1="1042.4" y2="1158.3" stroke="#a64253"/>
<line class="cls-10" x1="928.21" x2="1020.2" y1="1042.4" y2="1158.3" stroke="#a64253"/>
<polygon class="cls-28" transform="translate(-606.67 -346.87)" points="1084.8 969.33 1025.8 1040.9 1564.5 1040.9 1505.6 969.33" fill="url(#bn)" stroke="#a64253"/>
<line class="cls-10" x1="898.93" x2="957.83" y1="622.46" y2="694.03" stroke="#a64253"/>
<line class="cls-10" x1="838.81" x2="880.88" y1="622.46" y2="694.03" stroke="#a64253"/>
<line class="cls-10" x1="778.69" x2="803.93" y1="622.46" y2="694.03" stroke="#a64253"/>
<line class="cls-10" x1="718.56" x2="726.98" y1="622.46" y2="694.03" stroke="#a64253"/>
<line class="cls-10" x1="658.44" x2="650.03" y1="622.46" y2="694.03" stroke="#a64253"/>
<line class="cls-10" x1="598.32" x2="573.08" y1="622.46" y2="694.03" stroke="#a64253"/>
<line class="cls-10" x1="538.2" x2="496.13" y1="622.46" y2="694.03" stroke="#a64253"/>
<line class="cls-10" x1="478.08" x2="419.17" y1="622.46" y2="694.03" stroke="#a64253"/>
<polygon class="cls-29" transform="translate(-606.67 -346.87)" points="799.67 1202.8 845.53 1202.8 839.13 1174.3 809.82 1179.7" fill="url(#e)" stroke="#a64253"/>
<polygon class="cls-30" transform="translate(-606.67 -346.87)" points="965.37 1138.6 955.55 1174.3 926.79 1164.7 914.25 1141.2 936.97 1124.6" fill="url(#d)" stroke="#a64253"/>
<polygon class="cls-5" transform="translate(-606.67 -346.87)" points="1414.1 1093 1388.9 1093 1388.9 1076.2 1372.1 1076.2 1372.1 1093 1346.8 1093 1346.8 1076.2 1330 1076.2 1330 1093 1304.7 1093 1304.7 1076.2 1287.9 1076.2 1287.9 1093 1262.7 1093 1262.7 1076.2 1245.8 1076.2 1245.8 1093 1220.6 1093 1220.6 1076.2 1203.8 1076.2 1203.8 1093 1178.5 1093 1178.5 1076.2 1161.7 1076.2 1161.7 1093 1136.4 1093 1136.4 1076.2 1119.6 1076.2 1119.6 1093 1094.4 1093 1094.4 1076.2 1077.5 1076.2 1077.5 1093 1052.3 1093 1052.3 1076.2 1035.5 1076.2 1035.5 1093 1018.6 1093 1018.6 1076.2 1001.1 1040.9 1590.8 1040.9 1574 1076.2 1574 1093 1557.2 1093 1557.2 1076.2 1540.4 1076.2 1540.4 1093 1515.1 1093 1515.1 1076.2 1498.3 1076.2 1498.3 1093 1473 1093 1473 1076.2 1456.2 1076.2 1456.2 1093 1431 1093 1431 1076.2 1414.1 1076.2" stroke="#a64253"/>
<polygon class="cls-31" transform="translate(-606.67 -346.87)" points="1693.6 1363.4 1693.6 1324.4 1430.6 1324.4 1430.6 1363.4 1458 1363.4 1458 1346.6 1483.2 1346.6 1483.2 1363.4 1516.9 1363.4 1516.9 1346.6 1542.1 1346.6 1542.1 1363.4 1575.8 1363.4 1575.8 1346.6 1601 1346.6 1601 1363.4 1634.7 1363.4 1634.7 1346.6 1659.9 1346.6 1659.9 1363.4" fill="url(#ae)" stroke="#a64253"/>
<line class="cls-10" x1="260.45" x2="182.74" y1="1379.1" y2="1379.1" stroke="#a64253"/>
<line class="cls-10" x1="81.735" x2="144.8" y1="1226.8" y2="1226.8" stroke="#a64253"/>
<line class="cls-10" x1="98.675" x2="138.22" y1="1209.6" y2="1209.6" stroke="#a64253"/>
<line class="cls-10" x1="115.62" x2="140.49" y1="1192.4" y2="1192.4" stroke="#a64253"/>
<line class="cls-10" x1="132.55" x2="143.54" y1="1175.4" y2="1175.4" stroke="#a64253"/>
<polygon class="cls-32" transform="translate(-606.67 -346.87)" points="1113.3 1505.4 1130.2 1505.4 1130.2 1488.4 1164.4 1488.4 1164.4 1505.4 1181 1505.4 1181 1488.4 1214.8 1488.4 1214.8 1505.4 1231.8 1505.4 1231.8 1488.4 1266.9 1488.4 1266.9 1573.6 1249.8 1607.3 1249.8 1641.1 1207.4 1641.1 1129.2 1649.1 1096.8 1691.6 1068.6 1709.1 1053.9 1742.8 789.41 1742.8 951.8 1742.8 981.34 1709.1 981.34 1624.2 926.79 1569.6 926.79 1488.4 960.53 1488.4 960.53 1505.4 977.85 1505.4 977.85 1488.4 1011.7 1488.4 1011.7 1505.4 1028.6 1505.4 1028.6 1488.4 1062.5 1488.4 1062.5 1505.4 1079.4 1505.4 1079.4 1488.4 1113.3 1488.4" fill="url(#ad)" stroke="#a64253"/>
<polygon class="cls-33" transform="translate(-606.67 -346.87)" points="1611.5 1717.5 1594.4 1717.5 1578.8 1691.6 1573.1 1718.9 1518.9 1742.8 1477.6 1784.4 1442 1834.3 1410.7 1834.3 1386.5 1834.3 1336.7 1771.6 1305.3 1763.1 1298.2 1691.6 1249.8 1641.1 1249.8 1607.3 1266.9 1573.6 1266.9 1159.3 1340.9 1128 1467.7 1137.9 1467.7 1488.4 1483 1488.4 1483 1505.4 1499.9 1505.4 1499.9 1488.4 1534.2 1488.4 1534.2 1505.4 1550.7 1505.4 1550.7 1488.4 1584.6 1488.4 1584.6 1505.4 1601.5 1505.4 1601.5 1488.4 1636.6 1488.4 1636.6 1569.6 1611.5 1624.2 1611.5 1666.6" fill="url(#ac)" stroke="#a64253"/>
<polygon class="cls-5" transform="translate(-606.67 -346.87)" points="1363.6 1003.8 1340.9 1128 1467.7 1137.9 1392.5 1010.8" stroke="#a64253"/>
<polygon class="cls-5" transform="translate(-606.67 -346.87)" points="1363.6 1003.8 1340.9 1128 1266.9 1159.3 1334.8 1021.3" stroke="#a64253"/>
<polygon class="cls-34" transform="translate(-606.67 -346.87)" points="1147.2 2475.8 1155.6 2510.6 1173.5 2540.5 1161.5 2576.4 1126.8 2618.3 1106.4 2659.1 1080.1 2612.4 1056.2 2572.8 1057.7 2521.8 1069.6 2502.2 1069.6 2472.2 1087.3 2449.5 1124.4 2449.5" fill="url(#ab)" stroke="#a64253"/>
<polygon class="cls-5" transform="translate(-606.67 -346.87)" points="1344.1 1910.1 1344.1 1884.8 1369.4 1884.8 1369.4 1859.6 1394.6 1859.6 1394.6 1834.3 1342 1834.3 1342 1859.6 1316.8 1859.6 1316.8 1884.8 1291.5 1884.8 1291.5 1910.1 1266.3 1910.1 1266.3 1935.4 1241 1935.4 1241 1960.6 1215.8 1960.6 1215.8 1985.9 1190.5 1985.9 1190.5 2011.1 1165.3 2011.1 1165.3 2036.3 1139.9 2036.3 1139.9 2061.4 1114.8 2061.4 1114.8 2086.4 1089.5 2086.4 1089.5 2111.8 978.96 2111.8 1031.6 2111.8 1142.1 2111.8 1142.1 2086.4 1167.4 2086.4 1167.4 2061.4 1192.6 2061.4 1192.6 2036.3 1217.9 2036.3 1217.9 2011.1 1243.1 2011.1 1243.1 1985.9 1268.4 1985.9 1268.4 1960.6 1293.6 1960.6 1293.6 1935.4 1318.9 1935.4 1318.9 1910.1" stroke="#a64253"/>
<line class="cls-10" x1="508.16" x2="535.43" y1="1739.6" y2="1739.6" stroke="#a64253"/>
<line class="cls-10" x1="533.27" x2="560.78" y1="1714.5" y2="1714.5" stroke="#a64253"/>
<line class="cls-10" x1="558.61" x2="585.89" y1="1689.4" y2="1689.4" stroke="#a64253"/>
<line class="cls-10" x1="583.83" x2="611.23" y1="1664.3" y2="1664.3" stroke="#a64253"/>
<line class="cls-10" x1="609.09" x2="636.45" y1="1639" y2="1639" stroke="#a64253"/>
<line class="cls-10" x1="634.34" x2="661.7" y1="1613.7" y2="1613.7" stroke="#a64253"/>
<line class="cls-10" x1="659.6" x2="686.96" y1="1588.5" y2="1588.5" stroke="#a64253"/>
<line class="cls-10" x1="684.85" x2="712.22" y1="1563.2" y2="1563.2" stroke="#a64253"/>
<line class="cls-10" x1="710.11" x2="737.47" y1="1538" y2="1538" stroke="#a64253"/>
<line class="cls-10" x1="735.36" x2="762.73" y1="1512.7" y2="1512.7" stroke="#a64253"/>
<line class="cls-35" x1="861.01" x2="861.01" y1="1141.5" y2="1453.3" stroke="#a64253"/>
<path class="cls-36" d="m823.98 1487.4h-44.14l-0.83-1v-55a22.49 22.49 0 0 1 24.23-22.42 22.48 22.48 0 0 1 20.74 22.42z" fill="url(#bm)" stroke="#a64253"/>
<path class="cls-37" d="m447.22 1395.9h-6.89v-58.2a30.46 30.46 0 0 1 30.46-30.46 30.46 30.46 0 0 1 29.75 23.87l-10.39 13.65-28.23 17.41z" fill="url(#bl)" stroke="#a64253"/>
<path class="cls-38" d="m930.72 1195.8a32 32 0 0 1 32 32v42.49h-64.09v-42.49a32 32 0 0 1 32.09-32z" fill="url(#bk)" stroke="#a64253"/>
<path class="cls-5" d="m893.24 1270.3h74.95v4a15.71 15.71 0 0 1-15.71 15.71h-43.53a15.71 15.71 0 0 1-15.71-15.71z" stroke="#a64253"/>
<path class="cls-5" d="m494.61 594.9h387.79a16.53 16.53 0 0 1 16.53 16.53v11h-420.85v-11a16.53 16.53 0 0 1 16.53-16.53z" stroke="#a64253"/>
<path class="cls-5" d="m478.08 454.89h420.85v11a16.53 16.53 0 0 1-16.53 16.53h-387.79a16.53 16.53 0 0 1-16.53-16.53z" stroke="#a64253"/>
<rect class="cls-39" x="494.4" y="482.45" width="388.23" height="112.45" fill="url(#aa)" stroke="#a64253"/>
<polygon class="cls-40" transform="translate(-606.67 -346.87)" points="974.67 1157.7 992.66 1193.8 967.32 1193.8 918.45 1200.1 946.06 1148.5" fill="url(#z)" stroke="#a64253"/>
<polygon class="cls-41" transform="translate(-606.67 -346.87)" points="760.77 1202.8 799.67 1202.8 782.81 1184.3" fill="url(#y)" stroke="#a64253"/>
<polygon class="cls-42" transform="translate(-606.67 -346.87)" points="874.76 1184.3 850.26 1184.3 829.39 1202.8 887.1 1202.8" fill="url(#x)" stroke="#a64253"/>
<polygon class="cls-43" transform="translate(-606.67 -346.87)" points="1004.5 1177.6 986.05 1180.5 992.66 1193.8 1010.3 1195.9" fill="url(#w)" stroke="#a64253"/>
<polygon class="cls-44" transform="translate(-606.67 -346.87)" points="900.26 1184.3 926.92 1184.3 918.45 1200.1 897.87 1202.8" fill="url(#v)" stroke="#a64253"/>
<polygon class="cls-45" transform="translate(-606.67 -346.87)" points="722 1202.8 743.49 1202.8 732.93 1193.5" fill="url(#t)" stroke="#a64253"/>
<path class="cls-46" d="m556.12 505.05a35.26 35.26 0 0 1 35.26 35.26v32h-70.53v-32a35.26 35.26 0 0 1 35.27-35.26z" fill="url(#bj)" stroke="#a64253"/>
<path class="cls-47" d="m644.33 505.05a35.26 35.26 0 0 1 35.26 35.26v32h-70.53v-32a35.26 35.26 0 0 1 35.27-35.26z" fill="url(#bi)" stroke="#a64253"/>
<path class="cls-48" d="m732.63 505.05a35.26 35.26 0 0 1 35.26 35.26v32h-70.56v-32a35.26 35.26 0 0 1 35.3-35.26z" fill="url(#bg)" stroke="#a64253"/>
<path class="cls-49" d="m820.88 505.05a35.26 35.26 0 0 1 35.26 35.26v32h-70.53v-32a35.26 35.26 0 0 1 35.26-35.26z" fill="url(#bf)" stroke="#a64253"/>
<path class="cls-5" d="m763.05 523.92-25.82 19.65-6.9 28.73 10.66 36.38 31.81 31.31 45 13.11 43.27-7.35 13.16-43-18-30.41v-22.66l-18.75 8.08-7.56 14.54 17.74 30.41-10.67 23.1-19.19-0.29-32.1-12.85-17.73-19.86v-50.2a38.45 38.45 0 0 0-4.84-18.69z" stroke="#a64253"/>
<line class="cls-50" x1="1025.9" x2="1025.9" y1="779.26" y2="822.17" stroke="#a64253"/>
<polygon class="cls-5" transform="translate(-606.67 -346.87)" points="1304 763.05 1279 755.79 1263.9 746.94 1263.9 711.94 1277.8 721.87 1301.6 727.45 1304 734.92 1324.6 762.35" stroke="#a64253"/>
<polygon class="cls-5" transform="translate(-606.67 -346.87)" points="1198.1 700.49 1202.4 674.63 1214.3 641.98 1221.6 612.11 1207.8 610.82 1198.1 596.51 1212.6 571.67 1236.3 567.73 1230.8 593.62 1217.7 597.41 1238.4 591.41 1250.1 601.8 1243.4 645.28 1230.1 678.28 1225.5 701.28 1225.5 731.11" stroke="#a64253"/>
<path class="cls-5" d="m1095.1 648.13-21.64-15.89-19.44-16.56-51.88-9.71-33.13-24.84-17-18.33-28.83-80.83 13.73 36 27.57 20.68h35.79l50.54-12.11 25-28.59 11.17-43.08-2-39.49-14.67-34.95-26.05-34.13-36.93-26.03-54.79-14.37-78.4 5.1-38.28 22.8-13.19-7.11-30.54 12.57-8.08 31.44-7.36 8.06-8.83 5.48 8.83-5.48-18.5-7.21-38.46-13.64-3.15-13.66-12.6-13.47-12.1-3.94-8.51 18.82 14 42.39 20.55 27.43 8.18-0.28-40.16 1.37-31.68-4.33-33.85-9.68-24.14-21.55-36.94-14.82-17.58-7.06-14.27-15.06-6.62-17.42-0.68-11.78-12 6.45-2.85 20.81 10.73 34.26 29.86 20.51 31.29 10.21 27.85 25.81 48.09 16.15 44.26 5.86 20.58-12.83-20.66 12.79-7.7 11.28-10.19 26.11-9.11 32.47-10.13 38.11-15 23.35-44.56-1.53-27.1-32.08 3.85-48.13 18.61-30.8-5.92-34.73-25.28-6.11-31 6.83-9 15.23h38.6l1.18 11.08-16.68 26.95-6.77 61.6 6.77 32.09 23.16 22.07 42 18.84 57.98-12.39 27.68-40.1 17.15-47.38 7.72-40.48 21.66-23.18 22.64 4.65 17.73 16.5 9.3 27.58-5.44 11.71-3.86 31.13 37.78-20.43 5.09-26.85-4.51-24.31-4.35-15.3 4.35 15.3 37 32.16 13.16 57.9 8.45 31.67 22.82 25.33 5.33 37.38-28.15 25.62-8.45 21-6.9 36.7 9.38 20 15-42.44 11.65-20.81 23-13.75 13.58-22.56-7.33-53.31-21.69-26.36-15.11-45.27-7.16-34.74-27.43-57.6h37.81l0.27 13.78-5.53 8.68-5.83 5.1 0.71 30 10.47 29.37 28.3 44.57 38.77 36.07 38.7 20.89 25.9-5.27 18.76 9.75 19.88 14.14 1.2 28.46-11 23.37-36.87-9.69-2.15-20.15-13.91 20.87 10.76 21.88 45.59 13.39 28.66-23.83 3.87-19.07z" stroke="#a64253"/>
<polyline class="cls-50" transform="translate(-606.67 -346.87)" points="1443.5 710.21 1460 698.81 1486.3 692.53 1503.9 703.57 1513 717.57" stroke="#a64253"/>
<ellipse class="cls-51" transform="rotate(-80.256)" cx="-230.58" cy="934.52" rx="17.106" ry="14.334" fill="url(#ag)" stroke="#a64253"/>
<path class="cls-52" d="m1025.9 707.13v-19.68l6.53 3.26a52.19 52.19 0 0 0 52.23-3.26v-30.53l-0.46 0.32a52.22 52.22 0 0 1-52.44 3.39l-6.38-3.19 0.52 30" fill="url(#s)" stroke="#a64253"/>
<line class="cls-50" x1="797.64" x2="797.64" y1="817.81" y2="866.01" stroke="#a64253"/>
<line class="cls-50" x1="694.9" x2="694.9" y1="830.78" y2="880.56" stroke="#a64253"/>
<polygon class="cls-53" transform="translate(-606.67 -346.87)" points="1312.9 612.11 1293.1 590.3 1279.8 595.03 1266.2 551.26 1285.1 566 1285.5 575.3 1330.2 558.29 1326.4 537.35 1296.3 522.58 1332.7 527.52 1337.8 520.46 1332.7 527.52 1350.1 529.88 1352.3 547.59 1390.8 559.6 1394.7 572.7 1415.6 612.11" fill="url(#r)" stroke="#a64253"/>
<polygon class="cls-5" transform="translate(-606.67 -346.87)" points="1434.7 580.74 1447.4 590.94 1450.7 593.95 1433.6 570.5 1468.7 578.38 1480 596.88 1474.3 612.11 1456.1 617.97 1427.4 612.11 1389.8 603.24 1370.2 612.11 1317.1 612.12 1351.3 578.57 1394 570.75" stroke="#a64253"/>
<line class="cls-35" x1="734.27" x2="734.27" y1="781.08" y2="1430.1" stroke="#a64253"/>
<line class="cls-10" x1="728.17" x2="660.22" y1="674.45" y2="812.41" stroke="#a64253"/>
<line class="cls-10" x1="742.54" x2="697.24" y1="665.7" y2="796.75" stroke="#a64253"/>
<line class="cls-10" x1="756.9" x2="734.27" y1="656.94" y2="781.08" stroke="#a64253"/>
<line class="cls-10" x1="756.9" x2="734.27" y1="656.94" y2="781.08" stroke="#a64253"/>
<line class="cls-10" x1="771.35" x2="797.64" y1="660.45" y2="786.07" stroke="#a64253"/>
<line class="cls-10" x1="785.8" x2="861.01" y1="663.97" y2="791.05" stroke="#a64253"/>
<polygon class="cls-54" transform="translate(-606.67 -346.87)" points="654.51 1590.5 749.09 1590.5 749.09 1607.3 765.95 1607.3 765.95 1624.2 782.81 1624.2 782.81 1641.1 799.67 1641.1 799.67 1657.9 816.54 1657.9 816.54 1674.8 833.4 1674.8 833.4 1691.6 850.26 1691.6 850.26 1709.1 867.12 1709.1 867.12 1725.9 883.99 1725.9 883.99 1742.8 789.41 1742.8 789.41 1725.9 772.55 1725.9 772.55 1709.1 755.69 1709.1 755.69 1691.6 738.82 1691.6 738.82 1674.8 721.96 1674.8 721.96 1657.9 705.1 1657.9 705.1 1641.1 688.24 1641.1 688.24 1624.2 671.38 1624.2 671.38 1607.3 654.51 1607.3" fill="url(#be)" stroke="#a64253"/>
<line class="cls-10" x1="64.705" x2="142.43" y1="1260.5" y2="1260.5" stroke="#a64253"/>
<line class="cls-10" x1="159.28" x2="81.575" y1="1277.3" y2="1277.3" stroke="#a64253"/>
<line class="cls-10" x1="98.435" x2="176.14" y1="1294.2" y2="1294.2" stroke="#a64253"/>
<line class="cls-10" x1="193" x2="115.3" y1="1311.1" y2="1311.1" stroke="#a64253"/>
<line class="cls-10" x1="132.16" x2="209.87" y1="1327.9" y2="1327.9" stroke="#a64253"/>
<line class="cls-10" x1="226.74" x2="149.02" y1="1344.8" y2="1344.8" stroke="#a64253"/>
<line class="cls-10" x1="165.88" x2="243.6" y1="1362.2" y2="1362.2" stroke="#a64253"/>
<line class="cls-10" x1="182.74" x2="260.45" y1="1379.1" y2="1379.1" stroke="#a64253"/>
<path class="cls-55" d="m388.11 1175.4a16.93 16.93 0 0 0-16.93 16.93v24.77h33.86v-24.78a16.93 16.93 0 0 0-16.93-16.92z" fill="url(#bd)" stroke="#a64253"/>
<path class="cls-56" d="m438.89 1175.4a16.93 16.93 0 0 0-16.93 16.93v24.77h33.86v-24.78a16.93 16.93 0 0 0-16.93-16.92z" fill="url(#bc)" stroke="#a64253"/>
<path class="cls-57" d="m489.67 1175.4a16.93 16.93 0 0 0-16.93 16.93v24.77h33.86v-24.78a16.93 16.93 0 0 0-16.93-16.92z" fill="url(#bb)" stroke="#a64253"/>
<path class="cls-58" d="m540.45 1175.4a16.92 16.92 0 0 0-16.92 16.93v24.77h33.85v-24.78a16.93 16.93 0 0 0-16.93-16.92z" fill="url(#ba)" stroke="#a64253"/>
<path class="cls-59" d="m591.23 1175.4a16.93 16.93 0 0 0-16.92 16.93v24.77h33.85v-24.78a16.93 16.93 0 0 0-16.93-16.92z" fill="url(#az)" stroke="#a64253"/>
<path class="cls-60" d="m642.01 1175.4a16.93 16.93 0 0 0-16.92 16.93v24.77h33.85v-24.78a16.93 16.93 0 0 0-16.93-16.92z" fill="url(#ay)" stroke="#a64253"/>
<path class="cls-5" d="m388.11 1588.5a65.58 65.58 0 0 1 65.58 65.58v110.87h-131.16v-110.87a65.58 65.58 0 0 1 65.58-65.58z" stroke="#a64253"/>
<path class="cls-61" d="m388.11 1615.6a46.75 46.75 0 0 1 46.75 46.75v102.63h-93.53v-102.62a46.75 46.75 0 0 1 46.78-46.76z" fill="url(#ax)" stroke="#a64253"/>
<polygon class="cls-5" transform="translate(-606.67 -346.87)" points="745.75 2063.4 787.8 2034.3 821.9 1995.4 891.36 2013.8 929.2 2007.8 952.8 2055.2 958.99 2110.6 946.15 2109.2 872.84 2109.4 843.23 2106 811.4 2115.5 789.41 2117.9 769.25 2122.1 749.09 2114.8" stroke="#a64253"/>
<polygon class="cls-5" transform="translate(-606.67 -346.87)" points="1429.6 505.19 1416.7 527.13 1403.8 531.17 1416.8 549.07 1436 535.64" stroke="#a64253"/>
<path class="cls-62" d="m319.99 643.91s52.56 76.84 52.56 77.83 16.78 61.31 16.78 61.31l8.56 47.73-18.47 2.83-12.69-23.24-11.72-5 3.73-13.57-28.4-14-11.61 7.13-17.57-27.09-34.99-43.71 24.16-28.34z" fill="url(#av)" stroke="#a64253"/>
<circle class="cls-63" cx="164.49" cy="1029.3" r="9.06" stroke="#a64253"/>
<path class="cls-64" d="m1069.4 1086.3a250.36 250.36 0 0 1 17.66 57.06c8.94 49.41-1.63 78.27-3 150-0.5 25.55 0.35 47.17 1.35 63.23" stroke="#a64253"/>
<circle class="cls-65" cx="1109.3" cy="1174.8" r="5.47" fill="url(#q)" stroke="#a64253"/>
<polygon class="cls-63" transform="translate(-606.67 -346.87)" points="1193.4 1873.3 1209.6 1815.2 1227.1 1819.6 1210.8 1877.6" stroke="#a64253"/>
<path class="cls-66" d="m638.22 1522.6c2.72 12.58 12.28 21.36 21.36 19.61s14.24-13.37 11.52-25.94z" stroke="#a64253"/>
<ellipse class="cls-63" cx="649.39" cy="1503.4" rx="22.12" ry="20.89" stroke="#a64253"/>
<path class="cls-67" d="m615.25 1458c-2.72-12.58 5.88-24.85 19.19-27.42s26.32 5.55 29 18.13l1.7 6.31-48.63 9.37z" fill="url(#au)" stroke="#a64253"/>
<polygon class="cls-63" transform="translate(-606.67 -346.87)" points="1220.2 1850.7 1212.2 1813.4 1262.1 1803.8 1270.2 1841.1" stroke="#a64253"/>
<polygon class="cls-63" transform="translate(-606.67 -346.87)" points="1270.7 1841 1262.7 1803.7 1282.7 1799.8 1286 1838" stroke="#a64253"/>
<polygon class="cls-63" transform="translate(-606.67 -346.87)" points="1212.2 1899.9 1253.5 1872.6 1263.8 1886.5 1222.6 1913.8" stroke="#a64253"/>
<polygon class="cls-63" transform="translate(-606.67 -346.87)" points="1190.5 1985.9 1204.9 1910.6 1222.6 1913.8 1207.8 1985.9" stroke="#a64253"/>
<path class="cls-66" d="m635.48 1523c2.71 12.58 11.18 20.28 18.69 20.12 7.76-0.16 11.57-12.85 8.86-25.43z" stroke="#a64253"/>
<polygon class="cls-63" transform="translate(-606.67 -346.87)" points="1234.7 1899.8 1271.8 1867.6 1284 1880.2 1246.9 1912.3" stroke="#a64253"/>
<polygon class="cls-63" transform="translate(-606.67 -346.87)" points="1293.9 1861.5 1267.4 1806.9 1283.8 1799.8 1310.3 1854.5" stroke="#a64253"/>
<polygon class="cls-63" transform="translate(-606.67 -346.87)" points="1302 1843.7 1243.4 1867 1250.3 1882.6 1309 1859.4" stroke="#a64253"/>
<circle class="cls-68" cx="644.58" cy="1523.2" r="12.55" fill="url(#at)" stroke="#a64253"/>
<polygon class="cls-63" transform="translate(-606.67 -346.87)" points="1293.6 1948.2 1245.3 1909.1 1233.9 1922.3 1283.4 1960.1" stroke="#a64253"/>
<polygon class="cls-69" transform="translate(-606.67 -346.87)" points="1713.8 1544.4 1713.8 1544.4 1713.8 1544.4 1714.2 1543 1717.1 1530.2 1713.8 1525.6 1702.1 1516.2 1694.8 1498.7 1699.7 1517 1702.5 1522 1708.7 1528.7 1704.8 1541.7 1690.8 1533.7 1678.4 1541.2 1676.4 1537.8 1676.4 1546.6 1683.7 1542.2 1690.2 1541 1697.7 1550.9 1710 1552.4" fill="url(#p)" stroke="#a64253"/>
<polygon class="cls-70" transform="translate(-606.67 -346.87)" points="1676 1576.2 1679.4 1578.5 1688.3 1563.8 1700.6 1551.3 1710 1552.4 1693.6 1563.1 1676 1582.8" fill="url(#o)" stroke="#a64253"/>
<path class="cls-71" d="m1112.9 1184.7 9.86 7.61 7.44 15.77a19.34 19.34 0 0 1-1.95 19.75 11.77 11.77 0 0 1-9.41 4.77h-2.51a11.77 11.77 0 0 1-9.4-4.6 11.83 11.83 0 0 1-2.29-9.05l2.5-15.51 3.35-14.21z" fill="url(#as)" stroke="#a64253"/>
<polygon class="cls-63" transform="translate(-606.67 -346.87)" points="1208.1 1880.5 1243.4 1830.4 1228.4 1821 1193.1 1871" stroke="#a64253"/>
<circle class="cls-72" cx="631.36" cy="1478" r="12.55" fill="url(#ar)" stroke="#a64253"/>
<line class="cls-73" x1="371.89" x2="375.37" y1="1654.2" y2="1675.6" stroke="#a64253"/>
<polygon class="cls-73" transform="translate(-606.67 -346.87)" points="988.67 1995.3 1000.5 1992.8 1011.3 2001.1 1001.6 2029.4 982.84 2029.4" stroke="#a64253"/>
<line class="cls-74" x1="404.68" x2="431.1" y1="1708.3" y2="1687.1" stroke="#a64253"/>
<polygon class="cls-63" transform="translate(-606.67 -346.87)" points="1016.2 2034.8 1022.6 2031.8 1018.5 2014.2 1008.7 2015.5" stroke="#a64253"/>
<circle class="cls-63" cx="376.18" cy="1654.6" r="7.42" stroke="#a64253"/>
<circle class="cls-63" cx="407.08" cy="1661.6" r="7.42" stroke="#a64253"/>
<polygon class="cls-63" transform="translate(-606.67 -346.87)" points="1001.6 2029.4 1004.4 2039.8 1019.8 2069.7 1026.7 2103.2 1032.4 2109.4 1016.5 2109.4 1006.3 2077.4 990.27 2051.2 977.71 2074.3 957.98 2103.9 961.96 2109.4 939.86 2109.4 943.71 2096.8 961.51 2069.4 972.93 2048.9 972.93 2042.8 982.84 2029.4" stroke="#a64253"/>
<circle class="cls-63" cx="399.67" cy="1636.1" r="9.94" stroke="#a64253"/>
<path class="cls-63" d="m428.39 1695.5a5.25 5.25 0 0 1-5.25 5.25c-2.9 0-13.62-10-13.62-12.9s2.08-2.3 5-2.3 13.87 7.05 13.87 9.95z" stroke="#a64253"/>
<polygon class="cls-75" transform="translate(-606.67 -346.87)" points="1119.8 1951.2 1140 1954.5 1138.8 1975 1051 2045.3 1032 2021.5" fill="url(#aq)" stroke="#a64253"/>
<polygon class="cls-63" transform="translate(-606.67 -346.87)" points="1048.6 2008.2 1066.7 2013.2 1067.7 2031.9 1051 2045.3 1032 2021.5" stroke="#a64253"/>
<line class="cls-74" x1="460.04" x2="474.87" y1="1666.3" y2="1654.5" stroke="#a64253"/>
<polygon class="cls-76" transform="translate(-606.67 -346.87)" points="951.91 2089.7 957.98 2103.9 930.67 2091.9 936.93 2102.1 908.55 2096 917.5 2105.9 897.49 2099.1 934.12 2063.8 945.13 2036.6 988.67 1995.3 1000.5 1992.8 1008.7 1999.1 990.27 2045.3 991.84 2105.9" fill="url(#n)" stroke="#a64253"/>
<polyline class="cls-74" transform="translate(-606.67 -346.87)" points="951.91 2089.7 965.13 2066.8 975.42 2034" stroke="#a64253"/>
<polyline class="cls-74" transform="translate(-606.67 -346.87)" points="930.67 2091.9 945.44 2074.7 951.91 2056.8" stroke="#a64253"/>
<polygon class="cls-77" transform="translate(-606.67 -346.87)" points="786.17 1437.4 783.53 1457.5 751.46 1519.6 732.75 1519.6 694.61 1485.4 749.42 1387.5 782.48 1391.5 790.87 1422.5" fill="url(#m)" stroke="#a64253"/>
<polygon class="cls-78" transform="translate(-606.67 -346.87)" points="902.47 1054.5 915.44 1048 926.51 1053 936.83 1054.1 943.72 1040.9 957.72 1040.9 973.25 1095.6 967.72 1105 980.76 1134.3 998.53 1144.5 991.82 1152 1008.1 1170 995.96 1086.2 956.31 993.61 942.56 978.89 913.15 978.89 903.05 986.39 867.45 1058.3 877.64 1069.5 892.55 1084.6 892.55 1062.3 892.55 1052.2" fill="url(#l)" stroke="#a64253"/>
<circle class="cls-63" cx="319.84" cy="613.97" r="12.94" stroke="#a64253"/>
<polygon class="cls-79" transform="translate(-606.67 -346.87)" points="916.44 1120.5 890.18 896.27 900.75 895.03 927.82 1126.1 924.01 1132.2" fill="url(#ap)" stroke="#a64253"/>
<polygon class="cls-63" transform="translate(-606.67 -346.87)" points="957.72 1028.2 949.73 1020.2 919.81 998.72 899.24 999.92 900.98 1011.4 913.76 1015.3 919.81 1015.3 943.72 1040.9 957.72 1040.9" stroke="#a64253"/>
<polygon class="cls-63" transform="translate(-606.67 -346.87)" points="915.44 1048 926.51 1053 926.51 1066.9 914.68 1066.9 907.78 1068.6 892.55 1066.5 892.55 1052.2 902.47 1054.5" stroke="#a64253"/>
<polygon class="cls-5" transform="translate(-606.67 -346.87)" points="951.8 1742.8 883.99 1742.8 883.99 1725.9 867.12 1725.9 867.12 1709.1 850.26 1709.1 850.26 1691.6 833.4 1691.6 833.4 1674.8 816.54 1674.8 816.54 1657.9 799.67 1657.9 799.67 1641.1 782.81 1641.1 782.81 1624.2 765.95 1624.2 765.07 1607.3 749.09 1607.3 749.09 1590.5 758.22 1582.8 743.96 1563.4 749.09 1524.6 782.81 1463 786.17 1437.4 811.4 1357.5 782.81 1315.7 777.68 1286.6 678.94 1248.4 651.8 1254 648.71 1235.8 632.17 1225 645.29 1202.8 897.87 1202.8 967.32 1193.8 1147.8 1202.8 1147.8 1270.8 1184.8 1294.7 1266.2 1316.1 1266.3 1389.5 1018.8 1389.5 940.29 1488.4 926.79 1488.4 926.79 1569.6 981.34 1624.2 981.34 1709.1" stroke="#a64253"/>
<path class="cls-80" d="m413.87 233.77a154.53 154.53 0 0 0-61.46 61.46 154.66 154.66 0 0 0-61.46-61.46 154.66 154.66 0 0 0 61.46-61.46 154.53 154.53 0 0 0 61.46 61.46z" fill="url(#k)" stroke="#a64253"/>
<path class="cls-81" d="m302.68 324.51a122 122 0 0 0-48.47 48.48 122 122 0 0 0-48.48-48.48 121.89 121.89 0 0 0 48.48-48.47 121.87 121.87 0 0 0 48.47 48.47z" fill="url(#ao)" stroke="#a64253"/>
<path class="cls-82" d="m177.19 38.555a86.49 86.49 0 0 0-34.35 34.36 86.52 86.52 0 0 0-34.36-34.36 86.43 86.43 0 0 0 34.36-34.35 86.4 86.4 0 0 0 34.35 34.35z" fill="url(#an)" stroke="#a64253"/>
<path class="cls-5" d="m322.13 155.72a145.06 145.06 0 0 0-100.88 100.89 145.08 145.08 0 0 0-100.92-100.89 145.06 145.06 0 0 0 100.92-100.88 145 145 0 0 0 100.88 100.88z" stroke="#a64253"/>
<polygon class="cls-83" transform="translate(-606.67 -346.87)" points="939.36 2272.9 828.27 2206 816.54 2166.1 749.09 2114.8 769.25 2122.1 789.41 2117.9 811.4 2115.5 843.23 2106 872.84 2109.4 940.3 2109.4 1142.1 2111.8 1142.1 2086.4 1167.4 2086.4 1167.4 2061.4 1192.6 2061.4 1192.6 2036.3 1217.9 2036.3 1217.9 2011.1 1243.1 2011.1 1243.1 1985.9 1268.4 1985.9 1268.4 1960.6 1293.6 1960.6 1293.6 1935.4 1318.9 1935.4 1318.9 1910.1 1344.1 1910.1 1344.1 1884.8 1369.4 1884.8 1369.4 1859.6 1394.6 1859.6 1394.6 1834.3 1442 1834.3 1477.6 1784.4 1518.9 1742.8 1573.1 1718.9 1578.8 1691.6 1594.4 1717.5 1611.5 1717.5 1611.5 1666.6 1721.2 1714.7 1704.1 1801.5 1721.2 1862.8 1685.6 1896.9 1672.7 1934 1600.1 1965.3 1590.2 2003.7 1503.3 2103.4 1396.5 2156.1 1358 2141.9 1335.2 2160.4 1315.3 2203.1 1279.7 2251.5 1180 2338.4 1113.1 2386.8 987.78 2369.7" fill="url(#af)" stroke="#a64253"/>
</svg>
