<svg xmlns="http://www.w3.org/2000/svg" viewBox="0 0 180 180"><path d="M123.943 44.074c11.308 8.599 22.012 17.463 33.375 25.38 4.514 3.146 6.195 6.736 6.457 11.597.427 7.945.837 15.895.93 23.847.019 1.545-1.03 3.67-2.277 4.578-16.004 11.65-32.126 23.138-48.234 34.646-7.616 5.442-15.263 10.839-23.245 16.504-9.247-6.592-18.479-13.204-27.742-19.772a16696.61 16696.61 0 00-41.97-29.67c-2.603-1.834-4.514-3.614-4.166-7.424.707-7.749.958-15.552 1.068-23.337.074-5.299 2.905-8.62 6.793-11.575a28776.094 28776.094 0 0062.945-47.989c2.099-1.604 3.715-1.668 5.952.104 9.83 7.786 19.833 15.352 30.114 23.111z"/></svg>