<svg xmlns="http://www.w3.org/2000/svg" viewBox="0 0 180 180"><path d="M157 71.387c.004 12.12.142 23.785-.094 35.443-.052 2.606-.868 5.536-2.266 7.717-6.36 9.917-12.994 19.662-19.691 29.357-1.046 1.514-2.746 3.005-4.453 3.564-12.247 4.01-24.435 8.37-36.95 11.306-4.473 1.05-9.869-1.248-14.716-2.51-7.192-1.87-14.204-4.456-21.42-6.207-5.11-1.239-8.643-3.711-11.572-8.185-5.823-8.899-12.633-17.159-18.324-26.134-1.935-3.052-2.166-7.432-2.416-11.255-.605-9.252-.67-18.538-1.14-27.8-.22-4.344.865-7.793 3.776-11.3 5.858-7.055 11.527-14.372 16.344-22.157 4.38-7.08 11.118-9.625 18.188-12.177 8.467-3.055 16.896-6.216 25.384-9.212 1.292-.456 2.957-.723 4.2-.315 11.512 3.782 23.019 7.597 34.408 11.73 2.65.962 5.38 2.73 7.16 4.882 7.749 9.371 15.207 18.986 22.629 28.622.79 1.027.658 2.766.953 4.631z"/></svg>