<svg xmlns="http://www.w3.org/2000/svg" viewBox="0 0 180 180"><path d="M130.334 37.733c7.361 4.67 14.126 9.712 21.555 13.426 6.546 3.273 7.651 7.98 7.173 14.418-.662 8.908-.768 17.859-1.076 26.792-.355 10.266-.55 20.54-1.13 30.792-.09 1.597-1.512 3.63-2.915 4.565-20.013 13.33-40.092 26.564-60.296 39.602-1.514.978-4.693 1.182-6.1.247-19.87-13.204-39.513-26.746-59.37-39.967-2.45-1.63-3.196-3.173-3.228-5.899-.239-20.764-.609-41.527-.961-62.29-.025-1.456-.234-2.91-.373-4.546 21.56-13.564 43.183-27.213 64.902-40.708 1.204-.748 3.623-.895 4.763-.182 12.332 7.717 24.52 15.663 37.056 23.75z"/></svg>