<svg xmlns="http://www.w3.org/2000/svg" viewBox="0 0 180 180"><path d="M30.27 83.185c.34-7.93.463-15.404 1.163-22.824.178-1.892 1.774-4.225 3.412-5.318 18.521-12.357 37.177-24.512 55.914-36.798 18.601 12.098 37.461 24.236 56.112 36.689 1.925 1.285 3.55 4.382 3.703 6.743 1.262 19.51 2.067 39.049 3.197 58.569.25 4.317-.472 6.95-4.985 9.186-17.922 8.877-35.548 18.353-53.22 27.728-3.14 1.666-5.774 1.822-9.032.09-18.213-9.69-36.511-19.22-54.856-28.657-2.563-1.318-3.634-2.793-3.459-5.713.783-13.066 1.382-26.144 2.05-39.695z"/></svg>