<svg version="1.2" xmlns="http://www.w3.org/2000/svg" viewBox="231 204 333 388" width="333" height="388">
	<title>Arrow Circle-svg</title>
	<defs>
		<clipPath clipPathUnits="userSpaceOnUse" id="cp1">
			<path d="m265 204h299v260.28h-299z"/>
		</clipPath>
		<clipPath clipPathUnits="userSpaceOnUse" id="cp2">
			<path d="m315 338h57v253h-57z"/>
		</clipPath>
		<clipPath clipPathUnits="userSpaceOnUse" id="cp3">
			<path d="m319.25 337.22l124.8 55.28-88.07 198.86-124.81-55.27z"/>
		</clipPath>
		<clipPath clipPathUnits="userSpaceOnUse" id="cp4">
			<path d="m444.29 392.6l-124.81-55.28-88.07 198.88 124.8 55.27z"/>
		</clipPath>
	</defs>
	<style>
		.s0 { fill: #94341d } 
	</style>
	<g id="Clip-Path: Clip-Path" clip-path="url(#cp1)">
		<g id="Clip-Path">
			<g>
				<path class="s0" d="m283.9 412q3.6 5.4 7.7 10.3 4.2 4.9 8.9 9.3 4.7 4.4 9.9 8.3 5.2 3.8 10.7 7 5.6 3.2 11.5 5.8 6 2.6 12.1 4.4 6.2 1.9 12.5 3 6.4 1.2 12.8 1.6 0.5 0 0.9-0.2 0.4-0.2 0.6-0.7 0.3-0.4 0.3-0.8-0.1-0.5-0.3-0.9 3.4 1.1 6.9 1.9-2.8-0.2-5.7-0.6c-1.2-0.1-1.4 1.8-0.1 1.9q9.3 1.3 18.8 1.2 4.3 0.6 8.6 0.9 0.3 0 0.6-0.1 0.3-0.1 0.5-0.3 0.2-0.2 0.3-0.4 0.1-0.3 0.2-0.6 28.8-2.8 55.3-14.4l0.4-0.2q24.7-8.5 45.6-24.3 15.5-9.4 28.9-21.6c20.5-19.1 35.4-46.2 30.6-75q-2-11.7-7.5-22.3-2-12.6-7.1-24.4-5.1-11.7-13.1-21.8-7.6-9.2-16.9-16.9-9.2-7.7-19.7-13.5-20.8-12.1-44-18.2c-30.2-7.8-62.8-7.8-92.3 3.3q-9.8 3.7-18.8 9-9 5.3-17.1 12.1-8 6.7-14.9 14.6-6.8 7.9-12.3 16.9-3 5-5.7 10.2-5.2 6.2-9.6 13.1-4.3 6.9-7.7 14.4-3.4 7.4-5.7 15.2-2.3 7.8-3.6 15.9-0.7 5-0.9 10-0.2 5.1 0 10.1 0.2 5 0.9 10 0.7 5 1.8 9.9 1.1 4.9 2.6 9.7 1.6 4.8 3.6 9.5 2 4.6 4.3 9 2.4 4.5 5.2 8.7zm8.5-127q1.5-3.2 3.1-6.4 10.2-12.5 23.1-22.2 12.8-9.8 27.6-16.3c24.8-10.8 52.6-13.6 79.4-10.3q20.8 2.7 40.6 9.8 19.8 7 37.6 18.1c19.6 12 38.1 28.3 48.6 49.1q1.3 8 1.3 16.2c0.1 29.6-11.6 57.7-31.2 79.8q-9.4 10.5-20.7 19.1c-8.8 5.7-17.9 10.9-27.2 15.7q-9 4.7-18.3 8.7-4.7 1.6-9.6 3-10.3 2.9-20.9 4.6-10.5 1.7-21.2 2.1-10.7 0.4-21.4-0.5-10.6-0.9-21.1-3.1-19.6-8-35.6-21.7c-20.6-17.5-36.1-41.3-42.2-67.8-6-26-2.5-53.5 8.1-77.9zm106 176.2q-12.5-1-24.6-4.6 25.9 3.6 51.7-0.3 2.6-0.4 5.1-0.8-15.8 4.5-32.2 5.7zm161.5-113.3c-2 14.2-8.5 27.4-17.1 38.7q-10 12.7-22.9 22.6c17.6-18 30.3-40.5 34.7-65.5q2.6-14.2 1.5-28.5 3 7.8 3.9 16.1 1 8.3-0.1 16.6zm-216-122.2c26.1-15.6 57.4-20.3 87.3-16.6 30.6 3.7 61.2 15.9 85.1 35.5q9 7.2 16.1 16.2 7.1 9 12.1 19.3 3.8 8.5 6.1 17.5-12-18.1-29.1-31.3-16.8-13-36-22.1-19.2-9.1-39.9-13.9c-27.6-6.5-56.9-6.9-84.3 1q-8.3 2.4-16.1 5.8-7.9 3.4-15.3 7.8-7.4 4.4-14.2 9.6-6.8 5.2-12.9 11.2 7.8-12.2 18.2-22.4 10.4-10.1 22.9-17.6zm-57 64.7q-4.9 12.8-7 26.3-2.2 13.5-1.5 27.2c1.6 27.8 13.3 54.2 31.6 75q15.7 18 36.6 29.6-8.7-2.7-16.9-6.2c-1.2-0.5-1.9 1.4-0.7 1.9q13 5.5 26.7 8.9 6.5 3 13.3 5.2-2.5-0.2-5-0.5-2.5-0.2-4.9-0.7-2.5-0.4-5-0.9-2.4-0.5-4.8-1.1-2.4-0.7-4.8-1.4-2.4-0.8-4.8-1.6-2.3-0.9-4.6-1.9-2.3-0.9-4.6-2-2.3-1.1-4.5-2.2-2.2-1.2-4.4-2.5-2.1-1.3-4.2-2.6-2.1-1.4-4.1-2.9-2-1.4-4-3-2-1.6-3.8-3.2-1.9-1.7-3.7-3.4-1.8-1.7-3.6-3.6-1.7-1.8-3.3-3.7-1.6-1.9-3.2-3.8-1.5-2-3-4-1.4-2.1-2.8-4.2-1.4-2.1-2.6-4.2-1.3-2.2-2.4-4.4-1.2-2.2-2.3-4.5-1-2.3-2-4.6-0.9-2.3-1.7-4.7-0.9-2.3-1.6-4.7-0.7-2.4-1.4-4.8-0.6-2.5-1.1-4.9-0.5-2.5-0.9-4.9-0.4-2.5-0.7-5-0.2-2.5-0.4-5-0.2-2.5-0.2-5-0.1-8.2 1.1-16.3 1.1-8.2 3.4-16 2.4-7.9 5.8-15.4 3.5-7.4 8-14.3z"/>
				<g id="Folder 1">
				</g>
			</g>
		</g>
	</g>
	<g id="Clip-Path: Clip-Path" clip-path="url(#cp2)">
		<g id="Clip-Path">
			<g>
				<g id="Clip-Path: Clip-Path" clip-path="url(#cp3)">
					<g id="Clip-Path">
						<g>
							<g id="Clip-Path: Clip-Path" clip-path="url(#cp4)">
								<g id="Clip-Path">
									<g>
										<path class="s0" d="m322 341.8c-3.6 32-4.1 64.2-1.3 96.3 2.7 32.1 8.6 63.8 17.6 94.7 4.9 16.9 10.8 33.6 17.5 49.8q6.2-13.9 12.4-27.8c0.4-1.1 1.5-1.1 2.2-0.2 0.7 0.9 0.8 2.5 0.3 3.6q-6.6 15.1-13.3 30.2-0.2 0.4-0.6 0.6c0 1.2-0.6 2.2-1.6 1.8q-16.5-7.3-33-14.6c-1.8-0.8-1.7-6 0.3-5.1q15.3 6.8 30.6 13.5c-12.2-29.4-21.4-59.9-27.7-91.1-6.4-32.1-9.6-64.8-9.7-97.6 0-18.4 1.1-36.8 3.1-55.2 0.4-3.4 3.5-1.6 3.2 1.1z"/>
									</g>
								</g>
							</g>
						</g>
					</g>
				</g>
			</g>
		</g>
	</g>
</svg>