<svg version="1.2" xmlns="http://www.w3.org/2000/svg" viewBox="0 0 400 400" width="400" height="400">
	<title>New Project</title>
	<defs>
		<radialGradient id="g1" cx="0" cy="0" r="1" gradientUnits="userSpaceOnUse" gradientTransform="matrix(0,-357.748,332.825,0,114.907,408.772)">
			<stop offset="0" stop-color="#ffdd55"/>
			<stop offset=".1" stop-color="#ffdd55"/>
			<stop offset=".5" stop-color="#ff543e"/>
			<stop offset="1" stop-color="#c837ab"/>
		</radialGradient>
		<radialGradient id="g2" cx="0" cy="0" r="1" gradientUnits="userSpaceOnUse" gradientTransform="matrix(31.396,156.805,-646.515,129.452,-41.481,46.003)">
			<stop offset="0" stop-color="#3771c8"/>
			<stop offset=".128" stop-color="#3771c8"/>
			<stop offset="1" stop-color="#6600ff" stop-opacity="0"/>
		</radialGradient>
	</defs>
	<style>
		.s0 { fill: url(#g1) } 
		.s1 { fill: url(#g2) } 
		.s2 { fill: #ffffff } 
	</style>
	<path fill-rule="evenodd" class="s0" d="m199.5 20c-75.3 0-97.2 0-101.6 0.6-15.6 1.1-25 3.6-35.6 8.8-8 3.9-14.4 8.7-20.8 15q-17.2 18.1-20.8 44.2c-1.1 8.3-1.7 10-1.7 53 0 14.5 0 33.4 0 58.9 0 75.3 0 97.2 0.6 101.6 1.1 15 3.6 24.5 8.6 34.7 9.4 20 27.7 34.8 49.1 40.3 7.5 2 15.8 3.1 26.4 3.6 4.4 0 50 0.3 95.5 0.3 45.6 0 91.1 0 95.5-0.3 12.3-0.5 19.5-1.6 27.3-3.6q8-1.9 15.2-5.8 7.5-3.6 13.9-8.9 6.4-5.3 11.4-11.7 5-6.4 8.6-13.9c5-10.2 7.5-19.9 8.6-34.1 0.3-3.3 0.3-52.8 0.3-102.2 0-49.7 0-99.1-0.3-102.2-1.1-14.4-3.6-24.4-8.6-34.7-4.2-8.3-8.9-14.7-15.5-21.1q-17.8-17.2-43.9-20.8c-8.6-1.1-10.3-1.7-53.3-1.7z"/>
	<path fill-rule="evenodd" class="s1" d="m199.5 20c-75.3 0-97.2 0-101.6 0.6-15.6 1.1-25 3.6-35.6 8.8-8 3.9-14.4 8.7-20.8 15q-17.2 18.1-20.8 44.2c-1.1 8.3-1.7 10-1.7 53 0 14.5 0 33.4 0 58.9 0 75.3 0 97.2 0.6 101.6 1.1 15 3.6 24.5 8.6 34.7 9.4 20 27.7 34.8 49.1 40.3 7.5 2 15.8 3.1 26.4 3.6 4.4 0 50 0.3 95.5 0.3 45.6 0 91.1 0 95.5-0.3 12.3-0.5 19.5-1.6 27.3-3.6q8-1.9 15.2-5.8 7.5-3.6 13.9-8.9 6.4-5.3 11.4-11.7 5-6.4 8.6-13.9c5-10.2 7.5-19.9 8.6-34.1 0.3-3.3 0.3-52.8 0.3-102.2 0-49.7 0-99.1-0.3-102.2-1.1-14.4-3.6-24.4-8.6-34.7-4.2-8.3-8.9-14.7-15.5-21.1q-17.8-17.2-43.9-20.8c-8.6-1.1-10.3-1.7-53.3-1.7z"/>
	<path fill-rule="evenodd" class="s2" d="m199.5 67.2c-36.1 0-40.8 0.3-55 0.8-14.1 0.6-23.9 2.8-32.2 6.2-8.9 3.3-16.4 8-23.6 15.5-7.5 7.2-12.2 14.7-15.5 23.6-3.4 8.3-5.6 18.1-6.2 32.2-0.5 14.2-0.8 18.9-0.8 55 0 36.1 0.3 40.8 0.8 55 0.6 14.1 2.8 23.9 6.2 32.2 3.3 8.9 8 16.4 15.5 23.6 7.2 7.5 14.7 12.2 23.6 15.6 8.3 3.3 18.1 5.5 32.2 6.1 14.2 0.5 18.9 0.8 55 0.8 36.1 0 40.8-0.3 55-0.8 14.1-0.6 23.9-2.8 32.2-6.1 8.9-3.4 16.4-8.1 23.6-15.6 7.5-7.2 11.9-14.7 15.6-23.6 3.3-8.3 5.5-18.1 6.1-32.2 0.5-14.2 0.8-18.9 0.8-55 0-36.1-0.3-40.8-0.8-55-0.6-14.1-2.8-23.9-6.1-32.2-3.7-8.9-8.1-16.4-15.6-23.6-7.2-7.5-14.7-12.2-23.6-15.6-8.3-3.3-18.1-5.5-32.2-6.1-14.2-0.5-18.9-0.8-55-0.8zm-11.9 23.9q5.2 0 11.9 0c35.5 0 39.7 0.3 53.9 0.8 13 0.6 20 2.8 24.7 4.7 6.1 2.3 10.5 5.3 15.3 10 4.7 4.5 7.5 8.9 10 15.3 1.9 4.7 3.8 11.7 4.7 24.7 0.5 14.2 0.5 18.4 0.5 53.9 0 35.5 0 39.7-0.5 53.9-0.9 13-2.8 20-4.7 24.7-2.5 6.1-5.3 10.5-10 15.3-4.8 4.7-9.2 7.5-15.3 10-4.7 1.9-11.7 3.8-24.7 4.4-14.2 0.8-18.4 0.8-53.9 0.8-35.5 0-39.7 0-53.9-0.8-13-0.6-20-2.8-24.7-4.4-6.4-2.5-10.8-5.3-15.3-10-4.7-4.8-7.7-9.2-10-15.3-1.9-4.7-4.1-11.7-4.7-24.7-0.5-14.2-0.8-18.4-0.8-53.9 0-35.5 0.3-40 0.8-53.9 0.6-13 2.8-20 4.7-24.7 2.3-6.4 5.3-10.8 10-15.3 4.5-4.7 8.9-7.7 15.3-10 4.7-1.9 11.7-4.1 24.7-4.7 12.2-0.5 17-0.8 42-0.8zm83 22.2c-6.4 0-12.2 3.9-14.7 10-2.5 5.8-1.1 12.8 3.3 17.2 4.7 4.7 11.7 6.1 17.5 3.6 6.1-2.5 10-8.3 10-14.7 0-8.9-7.2-16.1-16.1-16.1zm-71.2 155.5c-37.9 0-68.5-30.6-68.5-68.4 0-37.9 30.6-68.5 68.5-68.5 37.8 0 68.4 30.6 68.4 68.5 0 37.8-30.6 68.4-68.4 68.4zm0.1-23.9c-24.6 0-44.4-19.8-44.4-44.4 0-24.6 19.8-44.4 44.4-44.4 24.6 0 44.4 19.8 44.4 44.4 0 24.6-19.8 44.4-44.4 44.4z"/>
	<g id="Layer 1">
	</g>
</svg>